<svg xmlns="http://www.w3.org/2000/svg" viewBox="0 0 400 400" fill="none">
  <circle cx="200" cy="200" r="196" fill="#0F172A" />
  
  {/* 1. MORTARBOARD / GRADUATION CAP */}
  <polygon points="200,45 355,90 200,135 45,90" fill="#EA580C" />
  <path d="M130,115 L270,115 C270,115 276,150 200,155 C124,150 130,115 130,115 Z" fill="#C2410C" />
  <circle cx="200" cy="90" r="6" fill="#9A3412" />
  <path d="M200,90 Q140,95 110,130 Q92,155 94,180" stroke="#EA580C" stroke-width="6" stroke-linecap="round" fill="none" />
  <path d="M94,176 C86,186 64,198 76,218 C84,210 102,204 98,178 Z" fill="#EA580C" />

  {/* 2. OWL SPECTACLES & EYES */}
  <path d="M172,215 Q200,202 228,215" stroke="#38BDF8" stroke-width="15" stroke-linecap="round" fill="none" />
  <circle cx="138" cy="216" r="54" fill="#0F172A" stroke="#38BDF8" stroke-width="20" />
  <circle cx="262" cy="216" r="54" fill="#0F172A" stroke="#38BDF8" stroke-width="20" />

  {/* Pupils */}
  <circle cx="138" cy="216" r="30" fill="#FFFFFF" />
  <polygon points="138,216 160,194 168,216" fill="#0F172A" />
  <circle cx="262" cy="216" r="30" fill="#FFFFFF" />
  <polygon points="262,216 284,194 292,216" fill="#0F172A" />

  {/* 3. BOOK PAGES & FOUNTAIN PEN NIB */}
  <path d="M192,305 C156,282 108,284 88,298 C104,316 150,314 192,328 Z" fill="#F97316" />
  <path d="M208,305 C244,282 292,284 312,298 C296,316 250,314 208,328 Z" fill="#F97316" />
  
  <path d="M194,332 C152,316 100,318 72,338 C94,364 154,352 196,380 Z" fill="#38BDF8" />
  <path d="M206,332 C248,316 300,318 328,338 C306,364 246,352 204,380 Z" fill="#38BDF8" />

  <path d="M200,282 L212,326 L200,380 L188,326 Z" fill="#FFFFFF" />
  <circle cx="200" cy="326" r="2.5" fill="#0F172A" />
  <line x1="200" y1="328" x2="200" y2="378" stroke="#0F172A" stroke-width="2" stroke-linecap="round" />
</svg>
